<?xml version="1.0" encoding="UTF-8"?>
<svg id="Livello_1" data-name="Livello 1" xmlns="http://www.w3.org/2000/svg" viewBox="0 0 1092.69 300">
  <defs>
    <style>
      .cls-1 {
        fill: #2f2d2e;
      }
    </style>
  </defs>
  <path class="cls-1" d="M514.25,64.3c0-12.04-9.46-21.45-21.45-21.45v-21.4c0-12.04-9.41-21.45-21.4-21.45h-64.3v278.55h-64.3V0h-64.3c-11.99,0-21.4,9.41-21.4,21.45v21.4c-11.99,0-21.45,9.41-21.45,21.45s9.46,21.4,21.45,21.4v128.6c-11.99,0-21.45,9.41-21.45,21.4s9.46,21.45,21.45,21.45h21.4c0,11.99,9.46,21.4,21.45,21.4,0,12.04,9.41,21.45,21.45,21.45h107.1c12.04,0,21.45-9.41,21.45-21.45,11.99,0,21.45-9.41,21.45-21.4h21.4c11.99,0,21.45-9.41,21.45-21.45s-9.46-21.4-21.45-21.4V85.7c11.99,0,21.45-9.41,21.45-21.4Z"/>
  <path class="cls-1" d="M835.59,21.45c0-12.04-9.41-21.45-21.4-21.45h-85.7c-12.04,0-21.45,9.41-21.45,21.45,0-12.04-9.41-21.45-21.45-21.45s-21.4,9.41-21.4,21.45c0-12.04-9.41-21.45-21.45-21.45h-85.7c-11.99,0-21.4,9.41-21.4,21.45s9.41,21.4,21.4,21.4c-11.99,0-21.4,9.41-21.4,21.45s9.41,21.4,21.4,21.4v128.6c-11.99,0-21.4,9.41-21.4,21.4s9.41,21.45,21.4,21.45c-11.99,0-21.4,9.41-21.4,21.4s9.41,21.45,21.4,21.45h64.3c11.99,0,21.4-9.41,21.4-21.45V21.45c0,11.99,9.46,21.4,21.45,21.4s21.4-9.41,21.4-21.4c0,11.99,9.46,21.4,21.45,21.4s21.45-9.41,21.45-21.4v257.1c0,12.04,9.41,21.45,21.4,21.45h64.3c11.99,0,21.4-9.41,21.4-21.45s-9.41-21.4-21.4-21.4c11.99,0,21.4-9.41,21.4-21.45s-9.41-21.4-21.4-21.4V85.7c11.99,0,21.4-9.41,21.4-21.4s-9.41-21.45-21.4-21.45c11.99,0,21.4-9.41,21.4-21.4Z"/>
  <path class="cls-1" d="M685.62,64.29c0-12.01-9.42-21.43-21.43-21.43v21.43c0,12.01,9.42,21.43,21.43,21.43s21.43-9.42,21.43-21.43v-21.43c-12.01,0-21.43,9.42-21.43,21.43Z"/>
  <path class="cls-1" d="M685.62,107.15c0-12.01-9.42-21.43-21.43-21.43v21.43c0,12.01,9.42,21.43,21.43,21.43s21.43-9.42,21.43-21.43v-21.43c-12.01,0-21.43,9.42-21.43,21.43Z"/>
  <path class="cls-1" d="M664.19,150c0,12.01,9.42,21.43,21.43,21.43s21.43-9.42,21.43-21.43-9.42-21.43-21.43-21.43-21.43,9.42-21.43,21.43Z"/>
  <path class="cls-1" d="M1071.29,64.3c-11.99,0-21.45,9.41-21.45,21.4v-21.4c0-12.04-9.41-21.45-21.4-21.45,0-11.99-9.41-21.4-21.45-21.4,0-12.04-9.41-21.45-21.4-21.45h-107.15c-12.04,0-21.45,9.41-21.45,21.45s9.41,21.4,21.45,21.4c-12.04,0-21.45,9.41-21.45,21.45s9.41,21.4,21.45,21.4v128.6c-12.04,0-21.45,9.41-21.45,21.4s9.41,21.45,21.45,21.45c-12.04,0-21.45,9.41-21.45,21.4s9.41,21.45,21.45,21.45h64.25c12.04,0,21.45-9.41,21.45-21.45v-21.4c11.99,0,21.45-9.41,21.45-21.45,0,12.04,9.41,21.45,21.4,21.45s21.45-9.41,21.45-21.45v64.3h42.85c11.99,0,21.4-9.41,21.4-21.45V85.7c0-11.99-9.41-21.4-21.4-21.4ZM1028.44,214.3c-12.04,0-21.45,9.41-21.45,21.4,0-11.99-9.41-21.4-21.4-21.4s-21.45,9.41-21.45,21.4V21.45h21.45c0,11.99,9.41,21.4,21.4,21.4,0,12.04,9.41,21.45,21.45,21.45v150Z"/>
  <path class="cls-1" d="M192.85,214.3c-12.04,0-21.45,9.41-21.45,21.4,0-11.99-9.41-21.4-21.4-21.4s-21.45,9.41-21.45,21.4,9.41,21.45,21.45,21.45h21.4c11.99,0,21.45-9.41,21.45-21.45v42.85c0-11.99-9.46-21.4-21.45-21.4s-21.4,9.41-21.4,21.4c0-11.99-9.46-21.4-21.45-21.4s-21.4,9.41-21.4,21.4V85.7c11.99,0,21.4-9.41,21.4-21.4s-9.41-21.45-21.4-21.45c11.99,0,21.4-9.41,21.4-21.4S119.14,0,107.15,0H21.4C9.41,0,0,9.41,0,21.45s9.41,21.4,21.4,21.4c-11.99,0-21.4,9.41-21.4,21.45s9.41,21.4,21.4,21.4v128.6c-11.99,0-21.4,9.41-21.4,21.4s9.41,21.45,21.4,21.45c-11.99,0-21.4,9.41-21.4,21.4s9.41,21.45,21.4,21.45h85.75c11.99,0,21.4-9.41,21.4-21.45,0,12.04,9.41,21.45,21.45,21.45s21.4-9.41,21.4-21.45c0,12.04,9.41,21.45,21.45,21.45s21.4-9.41,21.4-21.45v-42.85c0-11.99-9.41-21.4-21.4-21.4Z"/>
</svg>